<?xml version="1.0" encoding="UTF-8"?>
<svg id="Layer_1" data-name="Layer 1" xmlns="http://www.w3.org/2000/svg" viewBox="0 0 202.85 299.02">
  <defs>
    <style>
      .cls-1, .cls-2 {
        fill: #231f20;
      }

      .cls-2 {
        stroke: #231f20;
        stroke-miterlimit: 10;
        stroke-width: 9px;
      }
    </style>
  </defs>
  <path class="cls-1" d="M58.98,109.93l49.17-28.39,94.71,217.48"/>
  <path class="cls-2" d="M132.54,176.23l-3.48,2.01c-5.9,3.41-12.21,5.45-18.57,6.23-23.13,2.84-44.86-11.8-51.94-34l-11.39-35.68-8.71-14.86-28.84-31.66c-5.56-6.1-6.8-15.19-2.6-22.29,1.61-2.72,3.92-5.08,6.85-6.77L69.74,6.95c.33-.19.65-.37.99-.53,10.61-5.33,23.44,1,26.34,12.52l10.37,41.16,8.99,14.69,25.7,25.57c16.94,16.86,19.48,43.81,5.09,62.89-3.86,5.12-8.79,9.56-14.68,12.97Z"/>
</svg>